<svg width="14" height="14" viewBox="0 0 14 14" fill="none" xmlns="http://www.w3.org/2000/svg">
    <g clip-path="url(#clip0_402_95)">
        <path d="M13.5607 1.80307L11.9393 0.384426C11.658 0.138284 11.2765 1.82021e-06 10.8787 0L5.5 0C4.67156 0 4 0.587617 4 1.3125V2.625H1.5C0.671562 2.625 0 3.21262 0 3.9375V12.6875C0 13.4124 0.671562 14 1.5 14H8.5C9.32844 14 10 13.4124 10 12.6875V11.375H12.5C13.3284 11.375 14 10.7874 14 10.0625V2.73115C14 2.38305 13.842 2.04921 13.5607 1.80307ZM8.3125 12.6875H1.6875C1.63777 12.6875 1.59008 12.6702 1.55492 12.6394C1.51975 12.6087 1.5 12.5669 1.5 12.5234V4.10156C1.5 4.05805 1.51975 4.01632 1.55492 3.98555C1.59008 3.95478 1.63777 3.9375 1.6875 3.9375H4V10.0625C4 10.7874 4.67156 11.375 5.5 11.375H8.5V12.5234C8.5 12.5669 8.48025 12.6087 8.44508 12.6394C8.40992 12.6702 8.36223 12.6875 8.3125 12.6875ZM12.3125 10.0625H5.6875C5.63777 10.0625 5.59008 10.0452 5.55492 10.0144C5.51975 9.98368 5.5 9.94195 5.5 9.89844V1.47656C5.5 1.43305 5.51975 1.39132 5.55492 1.36055C5.59008 1.32979 5.63777 1.3125 5.6875 1.3125H9V3.71875C9 4.08119 9.33578 4.375 9.75 4.375H12.5V9.89844C12.5 9.94195 12.4802 9.98368 12.4451 10.0144C12.4099 10.0452 12.3622 10.0625 12.3125 10.0625ZM12.5 3.0625H10.5V1.3125H10.801C10.8507 1.3125 10.8984 1.32978 10.9336 1.36054L12.4451 2.68311C12.4625 2.69834 12.4763 2.71643 12.4857 2.73634C12.4952 2.75624 12.5 2.77758 12.5 2.79912V3.0625Z" fill="#02B3FD"/>
    </g>
    <defs>
        <clipPath id="clip0_402_95">
            <rect width="14" height="14" fill="white"/>
        </clipPath>
    </defs>
</svg>