<svg width="16" height="16" viewBox="0 0 16 16" fill="none" xmlns="http://www.w3.org/2000/svg">
    <g clip-path="url(#clip0_402_97)">
        <path d="M9.77834 9.4308L10.5561 8.55578C10.6777 8.41905 10.8891 8.51476 10.8891 8.71164V12.6875C10.8891 13.4121 10.3665 14 9.72243 14H1.16669C0.522581 14 0 13.4121 0 12.6875V3.0623C0 2.33767 0.522581 1.74977 1.16669 1.74977H7.8144C7.98698 1.74977 8.07448 1.98493 7.95295 2.12439L7.17516 2.99941C7.1387 3.04042 7.09008 3.0623 7.03661 3.0623H1.16669V12.6875H9.72243V9.58392C9.72243 9.5265 9.74188 9.47181 9.77834 9.4308ZM13.5847 3.91271L7.20189 11.0933L5.00462 11.3668C4.3678 11.4461 3.82578 10.8418 3.89627 10.1199L4.13933 7.64794L10.5221 0.46732C11.0787 -0.158866 11.978 -0.158866 12.5322 0.46732L13.5822 1.6486C14.1388 2.27478 14.1388 3.28926 13.5847 3.91271ZM11.1832 4.75765L9.77105 3.16894L5.25497 8.25225L5.07754 10.0378L6.66473 9.83823L11.1832 4.75765ZM12.7583 2.5783L11.7082 1.39703C11.6086 1.28492 11.4457 1.28492 11.3485 1.39703L10.5975 2.24197L12.0096 3.83067L12.7607 2.98573C12.8579 2.87089 12.8579 2.69041 12.7583 2.5783Z" fill="#FFF7F4"/>
    </g>
    <defs>
        <clipPath id="clip0_402_97">
            <rect width="16" height="16" fill="white"/>
        </clipPath>
    </defs>
</svg>
