<svg width="14" height="14" viewBox="0 0 14 14" fill="none" xmlns="http://www.w3.org/2000/svg">
    <path d="M12.0314 0.17779L0.656404 6.73756C-0.284221 7.2817 -0.193987 8.67349 0.812263 9.08638L3.93765 10.3797V12.6876C3.93765 13.9563 5.5564 14.4786 6.30562 13.4696L7.50328 11.8536L10.563 13.1169C10.7244 13.1825 10.8939 13.2153 11.0634 13.2153C11.2877 13.2153 11.5091 13.1579 11.7087 13.0458C12.0587 12.8489 12.2994 12.4989 12.3623 12.1024L13.9865 1.5149C14.1533 0.418415 12.9775 -0.366351 12.0314 0.17779ZM5.25015 12.6876V10.9211L6.25094 11.334L5.25015 12.6876ZM11.0634 11.9028L6.85797 10.1665L10.6916 4.63482C10.9841 4.21099 10.4318 3.71881 10.0435 4.05513L4.26031 9.09459L1.31265 7.87506L12.6877 1.31256L11.0634 11.9028Z" fill="#FF621F"/>
</svg>