<svg width="59" height="68" viewBox="0 0 59 68" fill="none" xmlns="http://www.w3.org/2000/svg">
    <path d="M23.8728 54.672C20.8488 54.672 18.0302 54.1867 15.4168 53.216C12.8408 52.208 10.6008 50.7893 8.69684 48.96C6.79284 47.1307 5.29951 44.984 4.21684 42.52C3.17151 40.056 2.64884 37.3493 2.64884 34.4C2.64884 31.4507 3.17151 28.744 4.21684 26.28C5.29951 23.816 6.79284 21.6693 8.69684 19.84C10.6382 18.0107 12.8968 16.6107 15.4728 15.64C18.0488 14.632 20.8675 14.128 23.9288 14.128C27.3262 14.128 30.3875 14.7253 33.1128 15.92C35.8755 17.0773 38.1902 18.7947 40.0568 21.072L34.2328 26.448C32.8888 24.9173 31.3955 23.7787 29.7528 23.032C28.1102 22.248 26.3182 21.856 24.3768 21.856C22.5475 21.856 20.8675 22.1547 19.3368 22.752C17.8062 23.3493 16.4808 24.208 15.3608 25.328C14.2408 26.448 13.3635 27.7733 12.7288 29.304C12.1315 30.8347 11.8328 32.5333 11.8328 34.4C11.8328 36.2667 12.1315 37.9653 12.7288 39.496C13.3635 41.0267 14.2408 42.352 15.3608 43.472C16.4808 44.592 17.8062 45.4507 19.3368 46.048C20.8675 46.6453 22.5475 46.944 24.3768 46.944C26.3182 46.944 28.1102 46.5707 29.7528 45.824C31.3955 45.04 32.8888 43.864 34.2328 42.296L40.0568 47.672C38.1902 49.9493 35.8755 51.6853 33.1128 52.88C30.3875 54.0747 27.3075 54.672 23.8728 54.672Z" fill="#02B3FD"/>
    <path d="M50.509 54.512C48.8023 54.512 47.3303 53.936 46.093 52.784C44.8983 51.5893 44.301 50.0747 44.301 48.24C44.301 46.4053 44.8983 44.9333 46.093 43.824C47.3303 42.672 48.8023 42.096 50.509 42.096C52.2583 42.096 53.7303 42.672 54.925 43.824C56.1197 44.9333 56.717 46.4053 56.717 48.24C56.717 50.0747 56.1197 51.5893 54.925 52.784C53.7303 53.936 52.2583 54.512 50.509 54.512Z" fill="#FF621F"/>
</svg>
